<?xml version="1.0" encoding="iso-8859-1"?>
<!-- Generator: Adobe Illustrator 19.0.0, SVG Export Plug-In . SVG Version: 6.00 Build 0)  -->
<svg xmlns="http://www.w3.org/2000/svg" xmlns:xlink="http://www.w3.org/1999/xlink" version="1.1" id="Capa_1" x="0px" y="0px" viewBox="0 0 424.96 424.96" style="enable-background:new 0 0 424.96 424.96;" xml:space="preserve" width="512px" height="512px">
<g>
	<g>
		<path d="M212.48,183.808c-45.568-0.512-82.432,36.352-82.944,81.92c-0.512,45.568,36.352,82.432,81.92,82.944    c45.568,0.512,82.432-36.352,82.944-81.92v-0.512C294.4,220.672,258.048,183.808,212.48,183.808z" fill="#006DF0"/>
	</g>
</g>
<g>
	<g>
		<path d="M325.12,0H99.84C62.976,0,33.28,29.696,33.28,66.56V358.4c0,36.864,29.696,66.56,66.56,66.56h225.28    c36.864,0,66.56-29.696,66.56-66.56V66.56C391.68,29.696,361.984,0,325.12,0z M325.12,266.24    c0,62.464-50.176,112.64-112.64,113.152c-62.464,0.512-113.152-50.176-113.664-112.64s50.176-113.152,112.64-113.664    s113.152,50.176,113.664,112.64V266.24z M283.136,116.736c-11.264,1.024-23.04-0.512-33.28-4.608    c-24.064-9.728-50.688-9.728-74.752-0.512l-2.56,1.024c-10.24,4.096-20.992,5.632-32.256,4.608l-76.8-7.168V67.072    c0-19.968,15.872-35.84,35.84-35.84h225.28c19.968,0,35.84,15.872,35.84,35.84v41.984h0.512L283.136,116.736z" fill="#006DF0"/>
	</g>
</g>
<g>
	<g>
		<circle cx="110.08" cy="71.68" r="23.04" fill="#006DF0"/>
	</g>
</g>
<g>
	<g>
		<circle cx="171.52" cy="71.68" r="23.04" fill="#006DF0"/>
	</g>
</g>
<g>
</g>
<g>
</g>
<g>
</g>
<g>
</g>
<g>
</g>
<g>
</g>
<g>
</g>
<g>
</g>
<g>
</g>
<g>
</g>
<g>
</g>
<g>
</g>
<g>
</g>
<g>
</g>
<g>
</g>
</svg>
